<svg width="128" xmlns="http://www.w3.org/2000/svg" data-name="Layer 1" viewBox="0 0 512 512"><ellipse cx="256" cy="268.033" fill="#d9f0ff" rx="207.401" ry="206.147"/><path fill="#b3e0ff" d="M256 61.886q-7.567 0-15 .541c107.541 7.64 192.4 96.769 192.4 205.606S348.542 466 241 473.64q7.432.528 15 .541c114.544 0 207.4-92.295 207.4-206.147 0-113.852-92.856-206.147-207.4-206.147Z"/><path fill="#b3e0ff" d="M302.984 127.982a7.49 7.49 0 0 1-2.25-.346 148.094 148.094 0 0 0-14.856-3.834 7.5 7.5 0 1 1 2.988-14.7 163.5 163.5 0 0 1 16.365 4.223 7.501 7.501 0 0 1-2.247 14.657zm-202.65 147.551a7.5 7.5 0 0 1-7.5-7.5c0-89.451 73.196-162.224 163.166-162.224a7.5 7.5 0 0 1 0 15c-81.7 0-148.166 66.045-148.166 147.224a7.5 7.5 0 0 1-7.5 7.5z"/><path fill="#3b3f4d" d="M407.69 456.567H104.31v-32.932a15 15 0 0 1 15-15h273.38a15 15 0 0 1 15 15Z"/><path fill="#313440" d="M392.69 408.635h-30a15 15 0 0 1 15 15v32.932h30v-32.932a15 15 0 0 0-15-15Z"/><path fill="#4a4f60" d="M452.69 504.5H59.31l11.709-37.412a15 15 0 0 1 14.315-10.52h341.332a15 15 0 0 1 14.315 10.52Z"/><path fill="#3b3f4d" d="M440.981 467.087a15 15 0 0 0-14.315-10.52h-30a15 15 0 0 1 14.315 10.52L422.69 504.5h30Z"/><path fill="#ffe966" d="M377.703 38.995c9.457 24.92 23.673 45.41 40.963 59.04-17.29 13.63-31.506 34.119-40.963 59.04-9.456-24.921-23.672-45.41-40.963-59.04 17.29-13.63 31.507-34.12 40.963-59.04Z"/><path fill="#ffe236" d="M377.703 38.995a167.504 167.504 0 0 1-7.5 16.907c7.53 14.706 16.884 27.316 27.617 37.156a6.775 6.775 0 0 1 0 9.954c-10.733 9.84-20.088 22.45-27.617 37.156a167.503 167.503 0 0 1 7.5 16.906c9.457-24.92 23.673-45.41 40.963-59.04-17.29-13.629-31.506-34.118-40.963-59.04Z"/><path fill="#ffe966" d="M479.57 7.5c5.755 15.166 14.407 27.636 24.93 35.931-10.523 8.295-19.175 20.765-24.93 35.931-5.755-15.166-14.407-27.636-24.93-35.93 10.523-8.296 19.175-20.765 24.93-35.932Z"/><path fill="#ffe236" d="M479.57 7.5a98.706 98.706 0 0 1-7.5 15.601 77.25 77.25 0 0 0 13.362 16.828 4.79 4.79 0 0 1 0 7.004A77.253 77.253 0 0 0 472.07 63.76a98.715 98.715 0 0 1 7.5 15.601c5.755-15.166 14.407-27.636 24.93-35.93-10.523-8.296-19.175-20.766-24.93-35.932Z"/><path fill="#3b3f4d" d="M504.5 512H7.5a7.5 7.5 0 0 1 0-15h497a7.5 7.5 0 0 1 0 15Z"/><circle cx="202" cy="196.5" r="7.5" fill="#66c1ff"/><circle cx="307" cy="166.5" r="7.5" fill="#66c1ff"/><circle cx="382" cy="226.5" r="7.5" fill="#66c1ff"/><circle cx="277" cy="286.5" r="7.5" fill="#66c1ff"/><circle cx="277" cy="376.5" r="7.5" fill="#66c1ff"/><circle cx="157" cy="316.5" r="7.5" fill="#66c1ff"/><circle cx="397" cy="346.5" r="7.5" fill="#66c1ff"/><path fill="#4eb7ff" d="M397 339a7.471 7.471 0 0 0-2.63.484 7.49 7.49 0 0 1 0 14.032A7.497 7.497 0 1 0 397 339zm-120 30a7.471 7.471 0 0 0-2.63.484 7.49 7.49 0 0 1 0 14.032A7.497 7.497 0 1 0 277 369zm0-90a7.471 7.471 0 0 0-2.63.484 7.49 7.49 0 0 1 0 14.032A7.497 7.497 0 1 0 277 279zm105-60a7.471 7.471 0 0 0-2.63.484 7.49 7.49 0 0 1 0 14.032A7.497 7.497 0 1 0 382 219zm-75-60a7.471 7.471 0 0 0-2.63.484 7.49 7.49 0 0 1 0 14.032A7.497 7.497 0 1 0 307 159zm-105 30a7.471 7.471 0 0 0-2.63.484 7.49 7.49 0 0 1 0 14.032A7.497 7.497 0 1 0 202 189zm-45 120a7.471 7.471 0 0 0-2.63.484 7.49 7.49 0 0 1 0 14.032A7.497 7.497 0 1 0 157 309z"/></svg>